<mxfile host="app.diagrams.net" agent="Mozilla/5.0 (Windows NT 10.0; Win64; x64) AppleWebKit/537.36 (KHTML, like Gecko) Chrome/135.0.0.0 Safari/537.36" version="27.0.1">
  <diagram name="Страница — 1" id="bq9KxYCUMmGJR8o-uWSk">
    <mxGraphModel dx="2253" dy="785" grid="1" gridSize="10" guides="1" tooltips="1" connect="1" arrows="1" fold="1" page="1" pageScale="1" pageWidth="827" pageHeight="1169" math="0" shadow="0">
      <root>
        <mxCell id="0" />
        <mxCell id="1" parent="0" />
        <mxCell id="u5NV7hlbbeQhAZytZryK-1" value="main" style="whiteSpace=wrap;html=1;" vertex="1" parent="1">
          <mxGeometry x="-90" y="80" width="120" height="60" as="geometry" />
        </mxCell>
        <mxCell id="u5NV7hlbbeQhAZytZryK-2" value="модуль планеты" style="whiteSpace=wrap;html=1;" vertex="1" parent="1">
          <mxGeometry x="380" y="80" width="120" height="60" as="geometry" />
        </mxCell>
        <mxCell id="u5NV7hlbbeQhAZytZryK-3" value="модуль спутник" style="whiteSpace=wrap;html=1;" vertex="1" parent="1">
          <mxGeometry x="580" y="80" width="120" height="60" as="geometry" />
        </mxCell>
        <mxCell id="u5NV7hlbbeQhAZytZryK-4" value="модуль звезда" style="whiteSpace=wrap;html=1;" vertex="1" parent="1">
          <mxGeometry x="730" y="80" width="120" height="60" as="geometry" />
        </mxCell>
        <mxCell id="u5NV7hlbbeQhAZytZryK-5" value="орбита" style="whiteSpace=wrap;html=1;" vertex="1" parent="1">
          <mxGeometry x="880" y="80" width="120" height="60" as="geometry" />
        </mxCell>
        <mxCell id="u5NV7hlbbeQhAZytZryK-8" value="" style="edgeStyle=orthogonalEdgeStyle;rounded=0;orthogonalLoop=1;jettySize=auto;html=1;" edge="1" parent="1" source="u5NV7hlbbeQhAZytZryK-6" target="u5NV7hlbbeQhAZytZryK-7">
          <mxGeometry relative="1" as="geometry" />
        </mxCell>
        <mxCell id="u5NV7hlbbeQhAZytZryK-6" value="настройки окна" style="whiteSpace=wrap;html=1;" vertex="1" parent="1">
          <mxGeometry x="200" y="160" width="120" height="60" as="geometry" />
        </mxCell>
        <mxCell id="u5NV7hlbbeQhAZytZryK-7" value="очистка" style="whiteSpace=wrap;html=1;" vertex="1" parent="1">
          <mxGeometry x="200" y="250" width="120" height="60" as="geometry" />
        </mxCell>
        <mxCell id="u5NV7hlbbeQhAZytZryK-9" value="зум&lt;div&gt;&lt;br&gt;&lt;/div&gt;" style="whiteSpace=wrap;html=1;" vertex="1" parent="1">
          <mxGeometry x="1080" y="230" width="120" height="60" as="geometry" />
        </mxCell>
        <mxCell id="u5NV7hlbbeQhAZytZryK-10" value="" style="edgeStyle=orthogonalEdgeStyle;rounded=0;orthogonalLoop=1;jettySize=auto;html=1;" edge="1" parent="1" source="u5NV7hlbbeQhAZytZryK-11" target="u5NV7hlbbeQhAZytZryK-13">
          <mxGeometry relative="1" as="geometry" />
        </mxCell>
        <mxCell id="u5NV7hlbbeQhAZytZryK-11" value="отрисовка планеты&amp;nbsp;" style="whiteSpace=wrap;html=1;" vertex="1" parent="1">
          <mxGeometry x="-100" y="490" width="120" height="60" as="geometry" />
        </mxCell>
        <mxCell id="u5NV7hlbbeQhAZytZryK-12" value="" style="edgeStyle=orthogonalEdgeStyle;rounded=0;orthogonalLoop=1;jettySize=auto;html=1;" edge="1" parent="1" source="u5NV7hlbbeQhAZytZryK-13" target="u5NV7hlbbeQhAZytZryK-15">
          <mxGeometry relative="1" as="geometry" />
        </mxCell>
        <mxCell id="u5NV7hlbbeQhAZytZryK-13" value="f_planet(x,y)" style="whiteSpace=wrap;html=1;" vertex="1" parent="1">
          <mxGeometry x="-100" y="580" width="120" height="60" as="geometry" />
        </mxCell>
        <mxCell id="u5NV7hlbbeQhAZytZryK-14" value="" style="edgeStyle=orthogonalEdgeStyle;rounded=0;orthogonalLoop=1;jettySize=auto;html=1;" edge="1" parent="1" source="u5NV7hlbbeQhAZytZryK-15" target="u5NV7hlbbeQhAZytZryK-16">
          <mxGeometry relative="1" as="geometry" />
        </mxCell>
        <mxCell id="u5NV7hlbbeQhAZytZryK-15" value="x=x1*zoomx&lt;br&gt;y=y1*zoomy" style="whiteSpace=wrap;html=1;" vertex="1" parent="1">
          <mxGeometry x="-100" y="660" width="120" height="60" as="geometry" />
        </mxCell>
        <mxCell id="u5NV7hlbbeQhAZytZryK-16" value="x1=x0+r*sin(pi)&lt;br&gt;y1=y0+r*cos(pi)" style="whiteSpace=wrap;html=1;" vertex="1" parent="1">
          <mxGeometry x="-100" y="740" width="120" height="60" as="geometry" />
        </mxCell>
      </root>
    </mxGraphModel>
  </diagram>
</mxfile>
